<?xml version="1.0" encoding="UTF-8"?><svg id="Layer_1" xmlns="http://www.w3.org/2000/svg" viewBox="0 0 91.32 38.17"><defs><style>.cls-1{fill:#fff;stroke-width:0px;}</style></defs><path class="cls-1" d="m10.09,28.94c-5.87,0-10.09-3.93-10.09-10.27s4.15-10.27,10.09-10.27,9.94,3.86,9.94,9.94c0,.57-.04,1.18-.11,1.79H6.08c.21,2.61,1.82,3.83,3.79,3.83,1.72,0,2.68-.86,3.18-1.93h6.51c-.97,3.9-4.51,6.9-9.48,6.9Zm-3.97-12.2h7.65c0-2.18-1.72-3.43-3.76-3.43s-3.54,1.22-3.9,3.43Z"/><path class="cls-1" d="m24.52,9.36l2.97-.85c-1.13.15-2.12.44-2.97.85Z"/><path class="cls-1" d="m69.71,8.41c2.97,0,5.08,1.36,6.15,3.11v-2.83h6.12v19.96h-6.12v-2.83c-1.11,1.75-3.22,3.11-6.19,3.11-4.86,0-8.76-4.01-8.76-10.3s3.9-10.23,8.8-10.23Zm1.79,5.33c-2.29,0-4.36,1.72-4.36,4.9s2.07,4.97,4.36,4.97,4.36-1.75,4.36-4.94-2.04-4.94-4.36-4.94Z"/><path class="cls-1" d="m84.05,3.33c0-1.86,1.47-3.33,3.65-3.33s3.61,1.47,3.61,3.33-1.47,3.29-3.61,3.29-3.65-1.47-3.65-3.29Zm.57,5.37h6.12v19.96h-6.12V8.69Z"/><path class="cls-1" d="m58.47,11.56c-1.32-1.66-3.14-2.72-5.2-3.05h-25.78l-2.97.85c-2.27,1.09-3.49,3.04-3.49,5.24,0,7.33,10.88,5.01,10.88,8.22,0,.9-.83,1.62-2.4,1.62-1.68,0-2.93-.94-3.08-2.33h-6.04c.29,3.86,3.86,6.83,9.19,6.83,5.01,0,8.09-2.61,8.09-6.08-.11-7.44-10.91-5.19-10.91-8.37,0-.86.62-1.41,1.77-1.51.14-.02.29-.03.44-.03.16,0,.32.01.47.03h10.19v25.19h6.12v-12.3c1.11,1.67,3.22,3.07,6.15,3.07,4.91,0,8.8-4,8.8-10.3,0-2.92-.84-5.33-2.23-7.08Zm-8.39,12.06c-2.29,0-4.37-1.76-4.37-4.94s2.08-4.94,4.37-4.94,4.4,1.71,4.4,4.9-2.08,4.98-4.4,4.98Z"/><path class="cls-1" d="m29.44,12.98h-.91c.14-.02.29-.03.44-.03.16,0,.32.01.47.03Z"/></svg>