<svg width="39" height="39" viewBox="0 0 39 39" fill="none" xmlns="http://www.w3.org/2000/svg">
<rect width="39" height="39" rx="6.36728" fill="url(#paint0_linear_692_8428)"/>
<path fill-rule="evenodd" clip-rule="evenodd" d="M19.4998 31.1999C25.9616 31.1999 31.1998 25.9616 31.1998 19.4999C31.1998 13.0381 25.9616 7.79988 19.4998 7.79988C13.0381 7.79988 7.79985 13.0381 7.79985 19.4999C7.79985 25.9616 13.0381 31.1999 19.4998 31.1999ZM26.4598 22.9204C26.6258 22.523 26.4383 22.0661 26.0408 21.9C25.6433 21.7339 25.1865 21.9215 25.0204 22.319C24.1155 24.4845 22.0806 25.7397 20.0572 25.7397C18.8366 25.7397 17.8081 25.4732 16.9485 24.9322C16.089 24.3912 15.3432 23.5412 14.7442 22.2842C14.5589 21.8953 14.0935 21.7303 13.7046 21.9155C13.3157 22.1008 13.1506 22.5663 13.3359 22.9552C14.0363 24.4252 14.9619 25.5252 16.1176 26.2525C17.2731 26.9797 18.6036 27.2997 20.0572 27.2997C22.7138 27.2997 25.3138 25.6628 26.4598 22.9204Z" fill="white"/>
<defs>
<linearGradient id="paint0_linear_692_8428" x1="0" y1="0" x2="39" y2="39" gradientUnits="userSpaceOnUse">
<stop stop-color="#4E4CB1"/>
<stop offset="1" stop-color="#9747FF"/>
</linearGradient>
</defs>
</svg>
